<?xml version="1.0" encoding="iso-8859-1"?>
<!-- Generator: Adobe Illustrator 19.0.0, SVG Export Plug-In . SVG Version: 6.00 Build 0)  -->
<svg version="1.1" id="Layer_1" xmlns="http://www.w3.org/2000/svg" xmlns:xlink="http://www.w3.org/1999/xlink" x="0px" y="0px"
	 viewBox="0 0 317.437 317.437" style="enable-background:new 0 0 317.437 317.437;" xml:space="preserve">
<path style="fill:#E27879;" d="M0,225.919h50.721v27.718c0,8.482-6.451,15.358-14.409,15.358H14.409
	C6.451,268.995,0,262.119,0,253.637V225.919z"/>
<path style="fill:#C76B6B;" d="M0,225.919h25.36v43.076H14.409C6.451,268.995,0,262.119,0,253.637V225.919z"/>
<polygon style="fill:#FDFADD;" points="25.36,10.224 50.721,65.003 50.721,80.047 0,80.047 0,65.003 "/>
<polygon style="fill:#F4F1D7;" points="25.36,10.224 25.36,80.047 0,80.047 0,65.003 "/>
<polygon style="fill:#A47D73;" points="36.565,34.425 25.36,10.224 14.156,34.425 "/>
<polygon style="fill:#68514A;" points="25.36,10.224 14.156,34.425 25.36,34.425 "/>
<rect y="77.612" style="fill:#91C8F5;" width="50.721" height="150.969"/>
<rect y="77.612" style="fill:#89B9DB;" width="25.36" height="150.969"/>
<path style="fill:#E27879;" d="M79.155,225.919h50.721v27.718c0,8.482-6.451,15.358-14.409,15.358H93.564
	c-7.958,0-14.409-6.876-14.409-15.358V225.919z"/>
<path style="fill:#C76B6B;" d="M79.155,225.919h25.36v43.076H93.564c-7.958,0-14.409-6.876-14.409-15.358V225.919z"/>
<polygon style="fill:#FDFADD;" points="104.515,10.224 129.876,65.003 129.876,80.047 79.155,80.047 79.155,65.003 "/>
<polygon style="fill:#F4F1D7;" points="104.515,10.224 104.515,80.047 79.155,80.047 79.155,65.003 "/>
<polygon style="fill:#A47D73;" points="115.72,34.425 104.515,10.224 93.311,34.425 "/>
<polygon style="fill:#68514A;" points="104.515,10.224 93.311,34.425 104.515,34.425 "/>
<rect x="79.155" y="77.612" style="fill:#FAD0B0;" width="50.721" height="150.969"/>
<rect x="79.155" y="77.612" style="fill:#EBC5A7;" width="25.36" height="150.969"/>
<path style="fill:#E27879;" d="M101.742,256.492v50.721H74.024c-8.482,0-15.358-6.451-15.358-14.409v-21.902
	c0-7.958,6.876-14.409,15.358-14.409h27.718V256.492z"/>
<path style="fill:#C76B6B;" d="M101.742,256.492v25.36H58.666v-10.951c0-7.958,6.876-14.409,15.358-14.409H101.742z"/>
<polygon style="fill:#FDFADD;" points="317.437,281.852 262.658,307.213 247.614,307.213 247.614,256.492 262.658,256.492 "/>
<polygon style="fill:#F4F1D7;" points="317.437,281.852 247.614,281.852 247.614,256.492 262.658,256.492 "/>
<polygon style="fill:#A47D73;" points="293.236,293.056 317.437,281.852 293.236,270.648 "/>
<polygon style="fill:#68514A;" points="317.437,281.852 293.236,270.648 293.236,281.852 "/>
<rect x="99.081" y="256.492" style="fill:#C8F9EC;" width="150.969" height="50.721"/>
<rect x="99.081" y="256.492" style="fill:#C9E4DF;" width="150.969" height="25.36"/>
<g>
</g>
<g>
</g>
<g>
</g>
<g>
</g>
<g>
</g>
<g>
</g>
<g>
</g>
<g>
</g>
<g>
</g>
<g>
</g>
<g>
</g>
<g>
</g>
<g>
</g>
<g>
</g>
<g>
</g>
</svg>
