<?xml version="1.0" encoding="iso-8859-1"?>
<!-- Generator: Adobe Illustrator 16.0.0, SVG Export Plug-In . SVG Version: 6.00 Build 0)  -->
<!DOCTYPE svg PUBLIC "-//W3C//DTD SVG 1.1//EN" "http://www.w3.org/Graphics/SVG/1.1/DTD/svg11.dtd">
<svg xmlns="http://www.w3.org/2000/svg" xmlns:xlink="http://www.w3.org/1999/xlink" version="1.1" id="Capa_1" x="0px" y="0px" width="512px" height="512px" viewBox="0 0 792 792" style="enable-background:new 0 0 792 792;" xml:space="preserve">
<g>
	<g>
		<ellipse cx="396" cy="702" rx="33.228" ry="36" fill="#966d1c"/>
		<path d="M471.708,54H320.292c-4.068,0-7.344,3.492-7.344,7.956v2.124c0,4.392,3.312,7.956,7.344,7.956h151.452    c4.068,0,7.344-3.492,7.344-7.956v-2.124C479.088,57.564,475.74,54,471.708,54z" fill="#966d1c"/>
		<path d="M545.544,792c0,0,66.456,0,66.456-72V72c0-72-66.456-72-66.456-72H246.456c0,0-66.456,0-66.456,72v648    c0,72,66.456,72,66.456,72H545.544z M213.228,72c0-17.352,4.968-25.452,14.868-30.816c7.02-3.78,14.76-5.184,18.36-5.184h299.088    c3.6,0,11.34,1.404,18.36,5.184c9.899,5.364,14.867,13.464,14.867,30.816v18H213.228V72z M213.228,126h365.544v486H213.228V126z     M213.228,720v-72h365.544v72c0,17.352-4.969,25.452-14.868,30.816c-7.021,3.779-14.761,5.184-18.36,5.184H246.456    c-3.6,0-11.34-1.404-18.36-5.184C218.196,745.452,213.228,737.352,213.228,720z" fill="#966d1c"/>
	</g>
</g>
<g>
</g>
<g>
</g>
<g>
</g>
<g>
</g>
<g>
</g>
<g>
</g>
<g>
</g>
<g>
</g>
<g>
</g>
<g>
</g>
<g>
</g>
<g>
</g>
<g>
</g>
<g>
</g>
<g>
</g>
</svg>
